<svg width="361" height="329" viewBox="0 0 361 329" fill="none" xmlns="http://www.w3.org/2000/svg">
<path fill-rule="evenodd" clip-rule="evenodd" d="M179.955 0C252.312 0 313.868 45.6934 336.681 109.47H350.607C356.731 126.59 360.064 145.013 360.064 164.205C360.064 183.397 356.731 201.82 350.607 218.94H336.681C313.868 282.717 252.312 328.41 179.955 328.41C107.598 328.41 46.0424 282.717 23.2288 218.94H9.45723C3.33319 201.82 0 183.397 0 164.205C0 145.013 3.33319 126.59 9.45723 109.47H23.2288C46.0424 45.6934 107.598 0 179.955 0ZM245.775 48.4731C255.357 65.5403 262.833 86.3133 267.458 109.47H281.384C284.804 126.59 286.667 145.013 286.667 164.205C286.667 183.398 284.804 201.82 281.384 218.94H267.458C262.833 242.096 255.357 262.869 245.775 279.936C270.602 266.12 290.535 244.731 302.366 218.94H316.292C323.948 202.252 328.212 183.721 328.212 164.205C328.212 144.69 323.948 126.159 316.292 109.47H302.366C290.535 83.6787 270.603 62.2887 245.775 48.4731ZM43.7716 109.47C36.1162 126.159 31.8517 144.69 31.8517 164.205C31.8517 183.721 36.1161 202.252 43.7716 218.94H57.5432C69.3742 244.731 89.3069 266.12 114.134 279.936C104.552 262.869 97.0757 242.097 92.4504 218.94H78.6785C75.2589 201.82 73.3975 183.397 73.3975 164.205C73.3975 145.013 75.2591 126.59 78.6785 109.47H92.4504C97.0756 86.3132 104.552 65.5403 114.134 48.4731C89.3066 62.2887 69.3741 83.6788 57.5432 109.47H43.7716ZM111.234 109.47C107.44 126.018 105.25 144.482 105.25 164.205C105.25 183.928 107.44 202.393 111.234 218.94H125.005C129.099 236.792 135.059 252.413 142.156 264.973C156.417 290.21 171.072 296.938 179.955 296.938C188.838 296.938 203.493 290.21 217.753 264.973C224.851 252.413 230.811 236.792 234.905 218.94H248.831C252.625 202.393 254.815 183.928 254.815 164.205C254.815 144.482 252.625 126.018 248.831 109.47H234.905C230.811 91.6183 224.851 75.9977 217.753 63.4371C203.493 38.2001 188.838 31.4727 179.955 31.4727C171.072 31.4727 156.417 38.2001 142.156 63.4371C135.059 75.9977 129.099 91.6183 125.005 109.47H111.234Z" fill="black"/>
</svg>
