<svg width="212" height="36" viewBox="0 0 212 36" fill="none" xmlns="http://www.w3.org/2000/svg">
<path d="M151.354 32.6617C144.879 32.6617 140.738 27.6804 140.738 20.6271C140.738 13.618 144.746 8.63665 151.442 8.63665C153.997 8.63665 156.905 9.69464 158.447 12.031V0.920787H163.601V32.0005H158.623V29.0469C157.125 31.4715 154.174 32.6617 151.354 32.6617ZM152.367 27.9449C156.024 27.9449 158.711 25.2558 158.711 20.6271C158.711 15.9985 155.98 13.3535 152.367 13.3535C148.447 13.3535 146.024 16.0425 146.024 20.6271C146.024 25.2999 148.447 27.9449 152.367 27.9449Z" fill="white"/>
<path d="M117.46 32.0005V9.29794H122.438V12.0311C123.716 9.87101 126.359 8.6367 129.31 8.6367C134.156 8.6367 137.724 11.3257 137.724 17.8059V32.0005H132.526V18.8198C132.526 15.2932 130.764 13.4417 127.812 13.4417C124.508 13.4417 122.658 15.6899 122.658 19.0402V32.0005H117.46Z" fill="white"/>
<path d="M103.214 32.6618C96.1655 32.6618 91.6282 27.9009 91.6282 20.539C91.6282 13.4858 96.2536 8.6367 102.95 8.6367C109.733 8.6367 114.315 13.045 114.315 19.6574V19.7455C114.315 20.7154 114.271 21.5529 114.139 22.3464H96.9144C97.1347 26.1375 99.5575 28.4298 103.302 28.4298C106.077 28.4298 107.971 27.1514 108.676 25.0796H113.962C112.817 29.7964 108.852 32.6618 103.214 32.6618ZM108.985 18.4231C108.896 14.9846 106.518 12.7805 102.994 12.7805C99.6016 12.7805 97.2228 14.8964 96.9144 18.4231H108.985Z" fill="white"/>
<path d="M79.4582 32.6618C73.4671 32.6618 69.2822 29.3997 69.1501 24.6828H74.4363C74.6565 27.0192 76.6829 28.5621 79.6784 28.5621C82.3215 28.5621 83.9955 27.3718 83.9955 25.5204C83.9955 24.0656 83.2466 23.3603 81.2202 23.0077L75.9781 22.1701C71.9253 21.5088 69.8549 19.3047 69.8549 15.8663C69.8549 11.5461 73.6434 8.63668 79.3701 8.63668C85.1849 8.63668 88.9733 11.5902 89.1496 16.2189H83.8633C83.6871 14.0148 81.881 12.6482 79.1939 12.6482C76.6829 12.6482 75.0971 13.7944 75.0971 15.5136C75.0971 16.8361 75.89 17.5414 77.9604 17.8941L83.3347 18.7316C87.2113 19.3488 89.2377 21.6411 89.2377 25.1236C89.2377 29.6641 85.4051 32.6618 79.4582 32.6618Z" fill="white"/>
<path d="M32.01 32.6618C27.3405 32.6618 23.9926 30.0168 23.9926 25.7849C23.9926 21.6411 26.9441 19.481 30.8647 18.7757L36.3271 17.8059C37.9129 17.5414 38.838 17.0124 38.838 15.6018C38.838 13.9266 37.4284 12.8245 34.7412 12.8245C32.2743 12.8245 30.1598 13.8825 29.9396 16.3071H24.6534C24.9617 11.5461 29.2347 8.63668 34.6972 8.63668C41.0406 8.63668 43.9921 11.7666 43.9921 15.8222V26.2698C43.9921 27.5041 44.6528 27.8568 45.4017 27.8568C45.7982 27.8568 46.1506 27.8127 46.503 27.7245V31.8242C45.666 32.1769 44.6088 32.4414 43.2872 32.4414C41.3049 32.4414 39.7631 31.692 39.1023 29.7964C37.7808 31.163 35.6222 32.6618 32.01 32.6618ZM33.2435 28.4739C36.4592 28.4739 38.838 26.5784 38.838 23.8893V20.7154C38.4856 21.1121 37.3403 21.4648 35.8866 21.7293L32.5827 22.3464C30.336 22.7872 29.2788 23.8011 29.2788 25.5204C29.2788 27.46 30.9528 28.4739 33.2435 28.4739Z" fill="white"/>
<path d="M0 32.0002V0.921872H11.6737C18.2374 0.921872 22.5985 4.88932 22.5985 10.7082C22.5985 16.5712 18.1934 20.4946 11.6737 20.4946H5.41836V32.0002H0ZM11.3653 15.6014C14.8454 15.6014 17.004 13.7059 17.004 10.7082C17.004 7.71061 14.8014 5.81506 11.3653 5.81506H5.41836V15.6014H11.3653Z" fill="white"/>
<path d="M55.4797 19.7013L57.2418 23.9333L58.9599 19.7455L63.365 9.29779H69.1357L57.3453 35.8647H51.5829L54.5105 29.6641L45.1716 9.29779H50.9424L55.4797 19.7013Z" fill="white"/>
<path fill-rule="evenodd" clip-rule="evenodd" d="M194.142 0C201.316 0 207.419 4.58648 209.682 10.9881H211.062C211.669 12.7065 212 14.5557 212 16.4821C212 18.4085 211.669 20.2577 211.062 21.9761H209.682C207.419 28.3777 201.316 32.9642 194.142 32.9642C186.967 32.9642 180.864 28.3777 178.602 21.9761H177.236C176.629 20.2577 176.299 18.4085 176.299 16.4821C176.299 14.5557 176.629 12.7065 177.236 10.9881H178.602C180.864 4.58648 186.967 0 194.142 0ZM200.668 4.86549C201.618 6.5786 202.359 8.66369 202.818 10.9881H204.199C204.538 12.7065 204.722 14.5557 204.722 16.4821C204.722 18.4085 204.538 20.2577 204.199 21.9761H202.818C202.359 24.3004 201.618 26.3855 200.668 28.0986C203.13 26.7118 205.106 24.5649 206.279 21.9761H207.66C208.419 20.301 208.842 18.441 208.842 16.4821C208.842 14.5232 208.419 12.6632 207.66 10.9881H206.279C205.106 8.39925 203.13 6.25222 200.668 4.86549ZM180.639 10.9881C179.88 12.6632 179.457 14.5232 179.457 16.4821C179.457 18.441 179.88 20.301 180.639 21.9761H182.004C183.177 24.5649 185.154 26.7118 187.615 28.0986C186.665 26.3855 185.924 24.3004 185.465 21.9761H184.1C183.761 20.2577 183.576 18.4085 183.576 16.4821C183.576 14.5557 183.761 12.7065 184.1 10.9881H185.465C185.924 8.66369 186.665 6.5786 187.615 4.86549C185.154 6.25223 183.177 8.39926 182.004 10.9881H180.639ZM187.328 10.9881C186.952 12.649 186.734 14.5024 186.734 16.4821C186.734 18.4618 186.952 20.3152 187.328 21.9761H188.693C189.099 23.768 189.69 25.3359 190.394 26.5967C191.808 29.1299 193.261 29.8051 194.142 29.8051C195.022 29.8051 196.476 29.1299 197.889 26.5967C198.593 25.3359 199.184 23.768 199.59 21.9761H200.971C201.347 20.3152 201.564 18.4618 201.564 16.4821C201.564 14.5024 201.347 12.649 200.971 10.9881H199.59C199.184 9.19618 198.593 7.62827 197.889 6.3675C196.476 3.83433 195.022 3.15907 194.142 3.15907C193.261 3.15907 191.808 3.83433 190.394 6.3675C189.69 7.62827 189.099 9.19618 188.693 10.9881H187.328Z" fill="white"/>
</svg>
