<svg width="1895" height="366" viewBox="0 0 1895 366" fill="none" xmlns="http://www.w3.org/2000/svg">
<path d="M1557.37 333.481C1490.74 333.481 1448.13 282.906 1448.13 211.295C1448.13 140.132 1489.38 89.5567 1558.28 89.5567C1584.57 89.5567 1614.48 100.298 1630.35 124.019V11.2184H1683.38V326.767H1632.16V296.78C1616.75 321.396 1586.38 333.481 1557.37 333.481ZM1567.8 285.591C1605.42 285.591 1633.07 258.289 1633.07 211.295C1633.07 164.3 1604.96 137.446 1567.8 137.446C1527.45 137.446 1502.52 164.748 1502.52 211.295C1502.52 258.737 1527.45 285.591 1567.8 285.591Z" fill="black"/>
<path d="M1208.62 326.768V96.2708H1259.84V124.02C1272.98 102.089 1300.18 89.5572 1330.55 89.5572C1380.41 89.5572 1417.12 116.859 1417.12 182.651V326.768H1363.63V192.945C1363.63 157.14 1345.5 138.342 1315.13 138.342C1281.14 138.342 1262.1 161.168 1262.1 195.183V326.768H1208.62Z" fill="black"/>
<path d="M1062.03 333.482C989.502 333.482 942.815 285.144 942.815 210.4C942.815 138.79 990.409 89.5572 1059.31 89.5572C1129.11 89.5572 1176.25 134.314 1176.25 201.449V202.344C1176.25 212.191 1175.8 220.695 1174.44 228.751H997.208C999.474 267.242 1024.4 290.515 1062.93 290.515C1091.49 290.515 1110.98 277.536 1118.23 256.5H1172.62C1160.84 304.39 1120.04 333.482 1062.03 333.482ZM1121.4 188.917C1120.5 154.007 1096.02 131.629 1059.76 131.629C1024.86 131.629 1000.38 153.112 997.208 188.917H1121.4Z" fill="black"/>
<path d="M817.59 333.481C755.945 333.481 712.884 300.361 711.525 252.472H765.917C768.184 276.193 789.034 291.858 819.857 291.858C847.053 291.858 864.278 279.773 864.278 260.975C864.278 246.206 856.572 239.045 835.721 235.464L781.782 226.96C740.081 220.247 718.777 197.868 718.777 162.958C718.777 119.097 757.758 89.5571 816.684 89.5571C876.516 89.5571 915.497 119.544 917.311 166.539H862.918C861.105 144.16 842.521 130.286 814.871 130.286C789.034 130.286 772.716 141.923 772.716 159.378C772.716 172.805 780.875 179.966 802.179 183.546L857.478 192.05C897.366 198.316 918.217 221.59 918.217 256.947C918.217 303.047 878.782 333.481 817.59 333.481Z" fill="black"/>
<path d="M329.369 333.481C281.322 333.481 246.874 306.627 246.874 263.661C246.874 221.59 277.243 199.659 317.584 192.498L373.79 182.651C390.108 179.966 399.627 174.595 399.627 160.273C399.627 143.265 385.122 132.076 357.472 132.076C332.089 132.076 310.332 142.818 308.065 167.434H253.673C256.846 119.097 300.813 89.5571 357.019 89.5571C422.29 89.5571 452.659 121.334 452.659 162.511V268.584C452.659 281.116 459.459 284.697 467.164 284.697C471.244 284.697 474.87 284.249 478.496 283.354V324.978C469.884 328.558 459.005 331.244 445.407 331.244C425.01 331.244 409.145 323.635 402.346 304.39C388.748 318.264 366.538 333.481 329.369 333.481ZM342.061 290.963C375.15 290.963 399.627 271.717 399.627 244.415V212.191C396 216.219 384.215 219.799 369.257 222.485L335.262 228.751C312.145 233.226 301.266 243.52 301.266 260.975C301.266 280.668 318.491 290.963 342.061 290.963Z" fill="black"/>
<path d="M0 326.765V11.2294H120.117C187.655 11.2294 232.529 51.5105 232.529 110.589C232.529 170.116 187.202 209.949 120.117 209.949H55.7526V326.765H0ZM116.944 160.269C152.753 160.269 174.963 141.024 174.963 110.589C174.963 80.1548 152.3 60.9094 116.944 60.9094H55.7526V160.269H116.944Z" fill="black"/>
<path d="M570.862 201.895L588.994 244.862L606.672 202.344L651.999 96.2693H711.376L590.059 366H530.766L560.89 303.046L464.797 96.2693H524.176L570.862 201.895Z" fill="black"/>
<path fill-rule="evenodd" clip-rule="evenodd" d="M1807.86 0C1842.87 0 1872.65 22.1124 1883.69 52.9757H1890.42C1893.39 61.2606 1895 70.1759 1895 79.4636C1895 88.7513 1893.39 97.6666 1890.42 105.951H1883.69C1872.65 136.815 1842.87 158.927 1807.86 158.927C1772.85 158.927 1743.07 136.815 1732.03 105.951H1725.37C1722.4 97.6666 1720.79 88.7513 1720.79 79.4636C1720.79 70.1759 1722.4 61.2606 1725.37 52.9757H1732.03C1743.07 22.1124 1772.85 0 1807.86 0ZM1839.7 23.4575C1844.34 31.7168 1847.96 41.7695 1850.19 52.9757H1856.93C1858.59 61.2606 1859.49 70.1759 1859.49 79.4636C1859.49 88.7513 1858.59 97.6666 1856.93 105.951H1850.19C1847.96 117.157 1844.34 127.21 1839.7 135.469C1851.72 128.783 1861.36 118.432 1867.08 105.951H1873.82C1877.53 97.8755 1879.59 88.9078 1879.59 79.4636C1879.59 70.0194 1877.53 61.0518 1873.82 52.9757H1867.08C1861.36 40.4945 1851.72 30.1433 1839.7 23.4575ZM1741.97 52.9757C1738.27 61.0518 1736.2 70.0194 1736.2 79.4636C1736.2 88.9078 1738.27 97.8754 1741.97 105.951H1748.63C1754.36 118.432 1764 128.783 1776.01 135.469C1771.38 127.21 1767.76 117.157 1765.52 105.951H1758.86C1757.2 97.6666 1756.3 88.7513 1756.3 79.4636C1756.3 70.1759 1757.2 61.2606 1758.86 52.9757H1765.52C1767.76 41.7694 1771.38 31.7168 1776.01 23.4575C1764 30.1433 1754.36 40.4946 1748.63 52.9757H1741.97ZM1774.61 52.9757C1772.77 60.9836 1771.71 69.9192 1771.71 79.4636C1771.71 89.008 1772.77 97.9436 1774.61 105.951H1781.27C1783.25 114.59 1786.14 122.15 1789.57 128.228C1796.47 140.441 1803.56 143.697 1807.86 143.697C1812.16 143.697 1819.25 140.441 1826.15 128.228C1829.58 122.15 1832.46 114.59 1834.44 105.951H1841.18C1843.02 97.9436 1844.08 89.008 1844.08 79.4636C1844.08 69.9192 1843.02 60.9836 1841.18 52.9757H1834.44C1832.46 44.3367 1829.58 36.7775 1826.15 30.699C1819.25 18.4861 1812.16 15.2305 1807.86 15.2305C1803.56 15.2305 1796.47 18.4861 1789.57 30.699C1786.14 36.7775 1783.25 44.3367 1781.27 52.9757H1774.61Z" fill="black"/>
</svg>
