<svg width="135" height="77" viewBox="0 0 135 77" fill="none" xmlns="http://www.w3.org/2000/svg">
<path d="M68.3131 0C66.4347 8.13996 64.4511 16.8018 62.3639 25.9854C61.3203 30.5772 60.3295 35.117 59.3903 39.6045H23.6305C25.5071 34.4773 27.4608 29.3109 29.4918 24.1064C33.0399 15.5492 36.4835 7.51368 39.8229 0H68.3131ZM134.685 0C132.807 8.13996 130.823 16.8018 128.736 25.9854C127.692 30.5772 126.702 35.117 125.762 39.6045H89.6901C91.5666 34.4773 93.5194 29.3108 95.5504 24.1064C99.0985 15.5492 102.542 7.51368 105.881 0H134.685Z" fill="#A0EB31"/>
<path d="M46.4912 39.6045C45.552 44.0917 44.6649 48.5273 43.8301 52.9102C42.1604 61.4672 40.8043 69.3983 39.7607 76.7031H2.19141L0 73.2598C1.87845 65.746 4.27914 57.8145 7.20117 49.4658C8.34607 46.1947 9.52344 42.9077 10.7324 39.6045H46.4912ZM112.863 39.6045C111.924 44.0917 111.037 48.5273 110.202 52.9102C108.532 61.4672 107.176 69.3983 106.133 76.7031H68.25L66.0586 73.2598C67.937 65.746 70.3377 57.8145 73.2598 49.4658C74.4047 46.1947 75.582 42.9077 76.791 39.6045H112.863Z" fill="#A0EB31"/>
</svg>
